name Walk7.mot
datacolumns 19
datarows 15
range 2.04300000 2.05700000
endheader

                time	   L_ground_force_vx	   L_ground_force_vy	   L_ground_force_vz	   L_ground_force_px	   L_ground_force_py	   L_ground_force_pz	   R_ground_force_vx	   R_ground_force_vy	   R_ground_force_vz	   R_ground_force_px	   R_ground_force_py	   R_ground_force_pz	   L_ground_torque_x	   L_ground_torque_y	   L_ground_torque_z	   R_ground_torque_x	   R_ground_torque_y	   R_ground_torque_z	
          2.04300000	          0.01790927	          0.06211429	         -0.00101472	         -0.00028366	          0.00000000	         -0.00007947	        -13.98360967	        540.83014644	        -42.94605667	          0.19969880	          0.00000000	          0.09997685	          0.00000000	          0.00016054	          0.00000000	          0.00000000	          1.33849882	          0.00000000	
          2.04400000	          0.01630536	          0.05691544	         -0.00105490	         -0.00027381	          0.00000000	         -0.00007699	        -13.54443747	        538.98370605	        -42.84247549	          0.20012977	          0.00000000	          0.10007997	          0.00000000	          0.00015633	          0.00000000	          0.00000000	          1.33403410	          0.00000000	
          2.04500000	          0.01477621	          0.05194354	         -0.00108768	         -0.00026376	          0.00000000	         -0.00007443	        -13.11298906	        537.16373472	        -42.74349962	          0.20056425	          0.00000000	          0.10018422	          0.00000000	          0.00015189	          0.00000000	          0.00000000	          1.32935712	          0.00000000	
          2.04600000	          0.01332123	          0.04719810	         -0.00111356	         -0.00025356	          0.00000000	         -0.00007181	        -12.68930575	        535.37062598	        -42.64914703	          0.20100225	          0.00000000	          0.10028961	          0.00000000	          0.00014726	          0.00000000	          0.00000000	          1.32448023	          0.00000000	
          2.04700000	          0.01193963	          0.04267778	         -0.00113303	         -0.00024328	          0.00000000	         -0.00006914	        -12.27341709	        533.60474749	        -42.55942036	          0.20144375	          0.00000000	          0.10039613	          0.00000000	          0.00014246	          0.00000000	          0.00000000	          1.31941688	          0.00000000	
          2.04800000	          0.01063038	          0.03838053	         -0.00114657	         -0.00023295	          0.00000000	         -0.00006644	        -11.86534086	        531.86644152	        -42.47430685	          0.20188875	          0.00000000	          0.10050376	          0.00000000	          0.00013753	          0.00000000	          0.00000000	          1.31418147	          0.00000000	
          2.04900000	          0.00939227	          0.03430362	         -0.00115462	         -0.00022262	          0.00000000	         -0.00006371	        -11.46508286	        530.15602473	        -42.39377845	          0.20233721	          0.00000000	          0.10061249	          0.00000000	          0.00013250	          0.00000000	          0.00000000	          1.30878927	          0.00000000	
          2.05000000	          0.00822395	          0.03044371	         -0.00115763	         -0.00021233	          0.00000000	         -0.00006098	        -11.07263645	        528.47378752	        -42.31779190	          0.20278909	          0.00000000	          0.10072227	          0.00000000	          0.00012740	          0.00000000	          0.00000000	          1.30325620	          0.00000000	
          2.05100000	          0.00712388	          0.02679696	         -0.00115600	         -0.00020211	          0.00000000	         -0.00005825	        -10.68798197	        526.81999351	        -42.24628877	          0.20324435	          0.00000000	          0.10083307	          0.00000000	          0.00012225	          0.00000000	          0.00000000	          1.29759877	          0.00000000	
          2.05200000	          0.00609042	          0.02335900	         -0.00115015	         -0.00019199	          0.00000000	         -0.00005553	        -10.31108635	        525.19487997	        -42.17919530	          0.20370294	          0.00000000	          0.10094483	          0.00000000	          0.00011708	          0.00000000	          0.00000000	          1.29183392	          0.00000000	
          2.05300000	          0.00512182	          0.02012509	         -0.00114045	         -0.00018201	          0.00000000	         -0.00005283	         -9.94190298	        523.59865993	        -42.11642225	          0.20416477	          0.00000000	          0.10105751	          0.00000000	          0.00011190	          0.00000000	          0.00000000	          1.28597902	          0.00000000	
          2.05400000	          0.00421623	          0.01709009	         -0.00112726	         -0.00017219	          0.00000000	         -0.00005016	         -9.58037220	        522.03152556	        -42.05786484	          0.20462977	          0.00000000	          0.10117103	          0.00000000	          0.00010674	          0.00000000	          0.00000000	          1.28005180	          0.00000000	
          2.05500000	          0.00337169	          0.01424856	         -0.00111093	         -0.00016255	          0.00000000	         -0.00004753	         -9.22642206	        520.49365242	        -42.00340298	          0.20509785	          0.00000000	          0.10128533	          0.00000000	          0.00010162	          0.00000000	          0.00000000	          1.27407018	          0.00000000	
          2.05600000	          0.00258622	          0.01159479	         -0.00109180	         -0.00015312	          0.00000000	         -0.00004494	         -8.87996938	        518.98520335	        -41.95290179	          0.20556893	          0.00000000	          0.10140034	          0.00000000	          0.00009655	          0.00000000	          0.00000000	          1.26805219	          0.00000000	
          2.05700000	          0.00185776	          0.00912283	         -0.00107016	         -0.00014392	          0.00000000	         -0.00004241	         -8.54092066	        517.50633142	        -41.90621229	          0.20604289	          0.00000000	          0.10151600	          0.00000000	          0.00009154	          0.00000000	          0.00000000	          1.26201572	          0.00000000	
